<svg xmlns="http://www.w3.org/2000/svg" xmlns:xlink="http://www.w3.org/1999/xlink" width="1080" zoomAndPan="magnify" viewBox="0 0 810 809.999993" height="1080" preserveAspectRatio="xMidYMid meet" version="1.0"><defs><g/></defs><rect x="-81" width="972" fill="#ffffff" y="-80.999999" height="971.999992" fill-opacity="1"/><rect x="-81" width="972" fill="#253439" y="-80.999999" height="971.999992" fill-opacity="1"/><path fill="#59909d" d="M 316.117188 361.835938 C 404.734375 366.363281 468.667969 328.09375 502.738281 300.65625 C 511.335938 293.695312 511.273438 280.238281 502.34375 273.742188 C 497.878906 270.460938 492.367188 268.554688 486.394531 268.554688 L 458.363281 268.554688 L 458.363281 237.902344 C 458.363281 208.296875 434.273438 184.140625 404.601562 184.140625 C 374.929688 184.140625 350.839844 208.230469 350.839844 237.902344 L 350.839844 268.554688 L 322.8125 268.554688 C 308.761719 268.554688 297.011719 279.191406 295.570312 293.105469 L 291.433594 333.015625 C 290.054688 347.851562 301.28125 361.113281 316.117188 361.835938 Z M 367.316406 237.902344 C 367.316406 217.289062 384.054688 200.550781 404.667969 200.550781 C 425.28125 200.550781 442.019531 217.289062 442.019531 237.902344 L 442.019531 268.554688 L 367.316406 268.554688 Z M 367.316406 237.902344 " fill-opacity="1" fill-rule="nonzero"/><path fill="#ffffff" d="M 531.6875 468.765625 L 517.703125 333.015625 C 516.65625 322.710938 504.050781 318.574219 496.960938 326.125 C 438.734375 388.484375 360.882812 411.199219 308.761719 419.46875 C 293.074219 421.964844 281.128906 434.828125 279.488281 450.648438 C 278.894531 456.492188 278.238281 462.726562 277.648438 468.699219 C 275.746094 486.882812 290.054688 502.703125 308.304688 502.703125 L 501.03125 502.703125 C 519.28125 502.703125 533.589844 486.949219 531.6875 468.765625 Z M 531.6875 468.765625 " fill-opacity="1" fill-rule="nonzero"/><g fill="#ffffff" fill-opacity="1"><g transform="translate(300.097507, 580.903196)"><g><path d="M 62.5625 5.59375 C 58.664062 10.113281 53.429688 12.375 46.859375 12.375 C 41.835938 12.375 36.707031 11.492188 31.46875 9.734375 C 25.519531 7.722656 20.832031 5.960938 17.40625 4.453125 C 10.945312 1.609375 6.648438 0.125 4.515625 0 L 3.765625 0 L 3.765625 -0.5625 L 30.15625 -42.140625 L 8.984375 -42.140625 C 7.554688 -42.097656 6.488281 -41.472656 5.78125 -40.265625 C 5.445312 -39.679688 5.28125 -39.050781 5.28125 -38.375 L 5.28125 -37.25 L 4.640625 -37.25 L 4.640625 -45.15625 C 5.273438 -44.90625 6.382812 -44.65625 7.96875 -44.40625 C 9.5625 -44.15625 10.660156 -44.03125 11.265625 -44.03125 C 11.878906 -44.03125 12.207031 -44.03125 12.25 -44.03125 L 29.765625 -44.03125 C 31.523438 -44.03125 33.007812 -44.132812 34.21875 -44.34375 C 35.4375 -44.550781 36.175781 -44.71875 36.4375 -44.84375 L 36.4375 -44.28125 L 8.984375 -0.9375 C 9.359375 -0.851562 11.597656 -0.144531 15.703125 1.1875 C 30.023438 5.882812 40.640625 8.234375 47.546875 8.234375 C 52.867188 8.234375 57.769531 7.1875 62.25 5.09375 Z M 62.5625 5.59375 "/></g></g></g><g fill="#ffffff" fill-opacity="1"><g transform="translate(340.039078, 580.903196)"><g><path d="M 17.40625 -29.328125 C 17.226562 -29.878906 17.140625 -30.351562 17.140625 -30.75 C 17.140625 -31.144531 17.160156 -31.59375 17.203125 -32.09375 C 17.253906 -32.59375 17.351562 -33.28125 17.5 -34.15625 C 17.644531 -35.039062 17.925781 -35.910156 18.34375 -36.765625 C 18.757812 -37.628906 19.238281 -38.457031 19.78125 -39.25 C 20.332031 -40.050781 21.035156 -40.785156 21.890625 -41.453125 C 22.742188 -42.128906 23.695312 -42.71875 24.75 -43.21875 C 26.96875 -44.300781 29.664062 -44.84375 32.84375 -44.84375 C 39.257812 -44.84375 44.484375 -42.71875 48.515625 -38.46875 C 52.554688 -34.21875 54.578125 -28.785156 54.578125 -22.171875 C 54.578125 -15.554688 52.191406 -10.0625 47.421875 -5.6875 C 42.648438 -1.3125 36.597656 0.875 29.265625 0.875 C 21.941406 0.875 15.859375 -1.300781 11.015625 -5.65625 C 6.179688 -10.007812 3.765625 -15.660156 3.765625 -22.609375 C 3.765625 -27.085938 4.8125 -31.066406 6.90625 -34.546875 C 9 -38.023438 11.992188 -40.75 15.890625 -42.71875 L 16.265625 -42.140625 C 13.546875 -40.347656 11.585938 -37.753906 10.390625 -34.359375 C 9.203125 -30.960938 8.609375 -27.363281 8.609375 -23.5625 C 8.609375 -16.476562 10.53125 -10.945312 14.375 -6.96875 C 18.226562 -2.988281 23.171875 -1 29.203125 -1 C 35.234375 -1 40.164062 -3 44 -7 C 47.832031 -11 49.75 -16.265625 49.75 -22.796875 C 49.75 -28.453125 48.226562 -33.226562 45.1875 -37.125 C 42.15625 -41.019531 37.875 -42.96875 32.34375 -42.96875 C 29.875 -42.96875 27.632812 -42.523438 25.625 -41.640625 C 21.976562 -40.097656 19.570312 -37.546875 18.40625 -33.984375 C 18.070312 -32.929688 17.90625 -32.03125 17.90625 -31.28125 C 17.90625 -30.53125 17.945312 -29.921875 18.03125 -29.453125 Z M 17.40625 -29.328125 "/></g></g></g><g fill="#ffffff" fill-opacity="1"><g transform="translate(398.3814, 580.903196)"><g><path d="M 45.796875 -0.625 L 46.546875 -0.625 L 46.546875 0 L 32.84375 0 L 32.84375 -0.625 L 33.671875 -0.625 C 34.710938 -0.625 35.617188 -0.988281 36.390625 -1.71875 C 37.171875 -2.457031 37.601562 -3.367188 37.6875 -4.453125 L 37.6875 -20.796875 L 13.375 -20.796875 L 13.375 -4.390625 C 13.375 1.460938 11.953125 5.394531 9.109375 7.40625 C 7.804688 8.332031 6.128906 9.023438 4.078125 9.484375 L 3.765625 8.921875 C 5.648438 7.910156 7.039062 6.359375 7.9375 4.265625 C 8.84375 2.171875 9.296875 -0.710938 9.296875 -4.390625 L 9.296875 -39.453125 C 9.296875 -40.535156 8.894531 -41.453125 8.09375 -42.203125 C 7.300781 -42.960938 6.363281 -43.34375 5.28125 -43.34375 L 4.515625 -43.34375 L 4.515625 -43.96875 L 18.21875 -43.96875 L 18.21875 -43.34375 L 17.40625 -43.34375 C 16.3125 -43.34375 15.375 -42.960938 14.59375 -42.203125 C 13.820312 -41.453125 13.414062 -40.535156 13.375 -39.453125 L 13.375 -22.671875 L 37.6875 -22.671875 L 37.6875 -38.3125 C 37.726562 -43.675781 38.921875 -47.40625 41.265625 -49.5 C 42.691406 -50.75 44.617188 -51.648438 47.046875 -52.203125 L 47.359375 -51.625 C 45.472656 -50.625 44.066406 -49.078125 43.140625 -46.984375 C 42.222656 -44.890625 41.765625 -42 41.765625 -38.3125 L 41.765625 -4.578125 C 41.765625 -3.492188 42.148438 -2.5625 42.921875 -1.78125 C 43.703125 -1.007812 44.660156 -0.625 45.796875 -0.625 Z M 45.796875 -0.625 "/></g></g></g><g fill="#ffffff" fill-opacity="1"><g transform="translate(449.438788, 580.903196)"><g><path d="M 7.46875 -46.109375 C 10.195312 -47.234375 12.816406 -47.796875 15.328125 -47.796875 C 17.421875 -47.796875 19.578125 -47.019531 21.796875 -45.46875 C 23.015625 -44.632812 24.375 -43.003906 25.875 -40.578125 C 26.882812 -38.898438 28.160156 -35.863281 29.703125 -31.46875 L 37.375 -9.734375 C 39.132812 -4.878906 40.921875 -1.019531 42.734375 1.84375 C 44.554688 4.71875 46.222656 6.875 47.734375 8.3125 C 49.242188 9.757812 50.8125 10.773438 52.4375 11.359375 C 54.070312 11.953125 55.421875 12.25 56.484375 12.25 C 57.554688 12.25 58.515625 12.164062 59.359375 12 L 59.421875 12.625 C 57.410156 13.289062 55.441406 13.625 53.515625 13.625 C 51.585938 13.625 49.660156 13.128906 47.734375 12.140625 C 45.804688 11.160156 44.003906 9.796875 42.328125 8.046875 C 38.734375 4.398438 35.679688 -1.148438 33.171875 -8.609375 L 30.71875 -15.765625 L 13.5 -15.765625 L 9.171875 -4.578125 C 8.960938 -4.078125 8.859375 -3.578125 8.859375 -3.078125 C 8.859375 -2.578125 9.078125 -2.039062 9.515625 -1.46875 C 9.953125 -0.90625 10.632812 -0.625 11.5625 -0.625 L 12.0625 -0.625 L 12.0625 0 L -0.5625 0 L -0.5625 -0.625 L 0 -0.625 C 1 -0.625 1.976562 -0.925781 2.9375 -1.53125 C 3.90625 -2.144531 4.707031 -3.054688 5.34375 -4.265625 L 20.921875 -41.578125 C 18.660156 -44.804688 15.851562 -46.421875 12.5 -46.421875 C 10.988281 -46.421875 9.375 -46.101562 7.65625 -45.46875 Z M 14.203125 -17.65625 L 30.09375 -17.65625 L 25.125 -32.28125 C 24.164062 -35.09375 23.285156 -37.289062 22.484375 -38.875 Z M 14.203125 -17.65625 "/></g></g></g><g fill="#ffffff" fill-opacity="1"><g transform="translate(494.157234, 580.903196)"><g/></g></g><g fill="#ffffff" fill-opacity="1"><g transform="translate(188.613713, 628.005492)"><g><path d="M 9.21875 -15.546875 C 9.125 -15.828125 9.078125 -16.070312 9.078125 -16.28125 C 9.078125 -16.5 9.085938 -16.738281 9.109375 -17 C 9.140625 -17.269531 9.191406 -17.632812 9.265625 -18.09375 C 9.347656 -18.5625 9.5 -19.023438 9.71875 -19.484375 C 9.9375 -19.941406 10.191406 -20.378906 10.484375 -20.796875 C 10.773438 -21.222656 11.144531 -21.613281 11.59375 -21.96875 C 12.050781 -22.320312 12.554688 -22.628906 13.109375 -22.890625 C 14.285156 -23.472656 15.71875 -23.765625 17.40625 -23.765625 C 20.800781 -23.765625 23.566406 -22.632812 25.703125 -20.375 C 27.847656 -18.125 28.921875 -15.242188 28.921875 -11.734375 C 28.921875 -8.234375 27.65625 -5.320312 25.125 -3 C 22.59375 -0.6875 19.382812 0.46875 15.5 0.46875 C 11.625 0.46875 8.40625 -0.679688 5.84375 -2.984375 C 3.28125 -5.296875 2 -8.296875 2 -11.984375 C 2 -14.359375 2.550781 -16.460938 3.65625 -18.296875 C 4.769531 -20.140625 6.359375 -21.582031 8.421875 -22.625 L 8.625 -22.328125 C 7.175781 -21.378906 6.132812 -20.003906 5.5 -18.203125 C 4.875 -16.410156 4.5625 -14.503906 4.5625 -12.484375 C 4.5625 -8.734375 5.582031 -5.800781 7.625 -3.6875 C 9.664062 -1.582031 12.28125 -0.53125 15.46875 -0.53125 C 18.664062 -0.53125 21.28125 -1.585938 23.3125 -3.703125 C 25.34375 -5.828125 26.359375 -8.617188 26.359375 -12.078125 C 26.359375 -15.078125 25.550781 -17.609375 23.9375 -19.671875 C 22.332031 -21.734375 20.066406 -22.765625 17.140625 -22.765625 C 15.828125 -22.765625 14.640625 -22.53125 13.578125 -22.0625 C 11.648438 -21.238281 10.375 -19.882812 9.75 -18 C 9.570312 -17.445312 9.484375 -16.96875 9.484375 -16.5625 C 9.484375 -16.164062 9.503906 -15.847656 9.546875 -15.609375 Z M 9.21875 -15.546875 "/></g></g></g><g fill="#ffffff" fill-opacity="1"><g transform="translate(219.532599, 628.005492)"><g><path d="M 25.890625 -22.96875 C 25.335938 -22.96875 24.859375 -22.769531 24.453125 -22.375 C 24.054688 -21.988281 23.847656 -21.519531 23.828125 -20.96875 L 23.828125 -3.796875 C 23.828125 -2.503906 23.90625 -1.285156 24.0625 -0.140625 L 24.125 0.46875 L 23.828125 0.46875 L 5.6875 -18.90625 L 5.6875 -2.328125 C 5.6875 -1.773438 5.882812 -1.300781 6.28125 -0.90625 C 6.6875 -0.519531 7.164062 -0.328125 7.71875 -0.328125 L 8.359375 -0.328125 L 8.359375 0 L 1.5 0 L 1.5 -0.328125 L 2.125 -0.328125 C 2.6875 -0.328125 3.164062 -0.519531 3.5625 -0.90625 C 3.957031 -1.300781 4.15625 -1.785156 4.15625 -2.359375 L 4.15625 -19.640625 C 4.15625 -20.992188 4.078125 -22.203125 3.921875 -23.265625 L 3.859375 -23.796875 L 4.1875 -23.796875 L 22.328125 -4.421875 L 22.328125 -20.9375 C 22.304688 -21.507812 22.09375 -21.988281 21.6875 -22.375 C 21.289062 -22.769531 20.816406 -22.96875 20.265625 -22.96875 L 19.640625 -22.96875 L 19.640625 -23.296875 L 26.484375 -23.296875 L 26.484375 -22.96875 Z M 25.890625 -22.96875 "/></g></g></g><g fill="#ffffff" fill-opacity="1"><g transform="translate(247.52268, 628.005492)"><g><path d="M 2.421875 -0.328125 C 3.003906 -0.328125 3.5 -0.53125 3.90625 -0.9375 C 4.320312 -1.351562 4.539062 -1.847656 4.5625 -2.421875 L 4.5625 -20.875 C 4.539062 -21.445312 4.320312 -21.9375 3.90625 -22.34375 C 3.5 -22.757812 3.003906 -22.96875 2.421875 -22.96875 L 2 -22.96875 L 2 -23.296875 L 9.28125 -23.296875 L 9.28125 -22.96875 L 8.859375 -22.96875 C 8.054688 -22.96875 7.441406 -22.625 7.015625 -21.9375 C 6.816406 -21.601562 6.71875 -21.25 6.71875 -20.875 L 6.71875 -1.03125 L 11.484375 -1.03125 C 13.117188 -1.03125 14.367188 -1.394531 15.234375 -2.125 C 16.109375 -2.863281 16.832031 -3.953125 17.40625 -5.390625 L 17.734375 -5.390625 L 15.8125 0 L 2 0 L 2 -0.328125 Z M 2.421875 -0.328125 "/></g></g></g><g fill="#ffffff" fill-opacity="1"><g transform="translate(266.227098, 628.005492)"><g><path d="M 2.421875 -0.328125 C 3.003906 -0.328125 3.5 -0.53125 3.90625 -0.9375 C 4.320312 -1.351562 4.539062 -1.847656 4.5625 -2.421875 L 4.5625 -20.90625 C 4.539062 -21.476562 4.320312 -21.960938 3.90625 -22.359375 C 3.5 -22.765625 3.003906 -22.96875 2.421875 -22.96875 L 2 -22.96875 L 2 -23.296875 L 9.28125 -23.296875 L 9.28125 -22.96875 L 8.859375 -22.96875 C 8.273438 -22.96875 7.773438 -22.765625 7.359375 -22.359375 C 6.953125 -21.960938 6.738281 -21.476562 6.71875 -20.90625 L 6.71875 -2.421875 C 6.71875 -1.847656 6.925781 -1.351562 7.34375 -0.9375 C 7.769531 -0.53125 8.273438 -0.328125 8.859375 -0.328125 L 9.28125 -0.328125 L 9.28125 0 L 2 0 L 2 -0.328125 Z M 2.421875 -0.328125 "/></g></g></g><g fill="#ffffff" fill-opacity="1"><g transform="translate(277.476372, 628.005492)"><g><path d="M 25.890625 -22.96875 C 25.335938 -22.96875 24.859375 -22.769531 24.453125 -22.375 C 24.054688 -21.988281 23.847656 -21.519531 23.828125 -20.96875 L 23.828125 -3.796875 C 23.828125 -2.503906 23.90625 -1.285156 24.0625 -0.140625 L 24.125 0.46875 L 23.828125 0.46875 L 5.6875 -18.90625 L 5.6875 -2.328125 C 5.6875 -1.773438 5.882812 -1.300781 6.28125 -0.90625 C 6.6875 -0.519531 7.164062 -0.328125 7.71875 -0.328125 L 8.359375 -0.328125 L 8.359375 0 L 1.5 0 L 1.5 -0.328125 L 2.125 -0.328125 C 2.6875 -0.328125 3.164062 -0.519531 3.5625 -0.90625 C 3.957031 -1.300781 4.15625 -1.785156 4.15625 -2.359375 L 4.15625 -19.640625 C 4.15625 -20.992188 4.078125 -22.203125 3.921875 -23.265625 L 3.859375 -23.796875 L 4.1875 -23.796875 L 22.328125 -4.421875 L 22.328125 -20.9375 C 22.304688 -21.507812 22.09375 -21.988281 21.6875 -22.375 C 21.289062 -22.769531 20.816406 -22.96875 20.265625 -22.96875 L 19.640625 -22.96875 L 19.640625 -23.296875 L 26.484375 -23.296875 L 26.484375 -22.96875 Z M 25.890625 -22.96875 "/></g></g></g><g fill="#ffffff" fill-opacity="1"><g transform="translate(305.466453, 628.005492)"><g><path d="M 2.421875 -0.328125 C 3.003906 -0.328125 3.5 -0.53125 3.90625 -0.9375 C 4.320312 -1.351562 4.539062 -1.847656 4.5625 -2.421875 L 4.5625 -21.0625 C 4.5625 -21.59375 4.347656 -22.039062 3.921875 -22.40625 C 3.503906 -22.78125 3.003906 -22.96875 2.421875 -22.96875 L 2.03125 -22.96875 L 2 -23.296875 L 11.75 -23.296875 C 12.4375 -23.296875 13.179688 -23.363281 13.984375 -23.5 C 14.796875 -23.632812 15.367188 -23.765625 15.703125 -23.890625 L 15.703125 -19.703125 L 15.375 -19.703125 L 15.375 -20.296875 C 15.375 -20.828125 15.191406 -21.28125 14.828125 -21.65625 C 14.460938 -22.039062 14.023438 -22.242188 13.515625 -22.265625 L 6.71875 -22.265625 L 6.71875 -11.984375 L 12.34375 -11.984375 C 12.789062 -12.003906 13.164062 -12.171875 13.46875 -12.484375 C 13.78125 -12.796875 13.9375 -13.179688 13.9375 -13.640625 L 13.9375 -14.109375 L 14.28125 -14.109375 L 14.28125 -8.859375 L 13.9375 -8.859375 L 13.9375 -9.359375 C 13.9375 -9.796875 13.785156 -10.171875 13.484375 -10.484375 C 13.191406 -10.796875 12.820312 -10.960938 12.375 -10.984375 L 6.71875 -10.984375 L 6.71875 -1.03125 L 11.484375 -1.03125 C 13.117188 -1.03125 14.367188 -1.394531 15.234375 -2.125 C 16.109375 -2.863281 16.832031 -3.953125 17.40625 -5.390625 L 17.734375 -5.390625 L 15.8125 0 L 2 0 L 2 -0.328125 Z M 2.421875 -0.328125 "/></g></g></g><g fill="#ffffff" fill-opacity="1"><g transform="translate(324.670114, 628.005492)"><g/></g></g><g fill="#ffffff" fill-opacity="1"><g transform="translate(332.990581, 628.005492)"><g><path d="M 13.875 0.46875 C 10.375 0.445312 7.519531 -0.671875 5.3125 -2.890625 C 3.101562 -5.109375 2 -8.03125 2 -11.65625 C 2 -15.289062 3.101562 -18.21875 5.3125 -20.4375 C 7.519531 -22.65625 10.441406 -23.765625 14.078125 -23.765625 C 17.046875 -23.765625 19.675781 -23.007812 21.96875 -21.5 L 22.625 -16.8125 L 22.328125 -16.8125 C 21.835938 -18.71875 20.847656 -20.1875 19.359375 -21.21875 C 17.878906 -22.25 16.117188 -22.765625 14.078125 -22.765625 C 11.171875 -22.765625 8.847656 -21.753906 7.109375 -19.734375 C 5.367188 -17.710938 4.5 -15.035156 4.5 -11.703125 C 4.5 -8.378906 5.359375 -5.703125 7.078125 -3.671875 C 8.796875 -1.640625 11.0625 -0.59375 13.875 -0.53125 C 16.363281 -0.53125 18.441406 -1.207031 20.109375 -2.5625 C 21.898438 -4.03125 22.984375 -6.414062 23.359375 -9.71875 L 23.625 -9.71875 L 23.234375 -4.5 C 21.210938 -1.1875 18.09375 0.46875 13.875 0.46875 Z M 13.875 0.46875 "/></g></g></g><g fill="#ffffff" fill-opacity="1"><g transform="translate(358.28482, 628.005492)"><g><path d="M 2.421875 -0.328125 C 3.003906 -0.328125 3.5 -0.53125 3.90625 -0.9375 C 4.320312 -1.351562 4.539062 -1.847656 4.5625 -2.421875 L 4.5625 -20.875 C 4.539062 -21.445312 4.320312 -21.9375 3.90625 -22.34375 C 3.5 -22.757812 3.003906 -22.96875 2.421875 -22.96875 L 2 -22.96875 L 2 -23.296875 L 9.28125 -23.296875 L 9.28125 -22.96875 L 8.859375 -22.96875 C 8.054688 -22.96875 7.441406 -22.625 7.015625 -21.9375 C 6.816406 -21.601562 6.71875 -21.25 6.71875 -20.875 L 6.71875 -1.03125 L 11.484375 -1.03125 C 13.117188 -1.03125 14.367188 -1.394531 15.234375 -2.125 C 16.109375 -2.863281 16.832031 -3.953125 17.40625 -5.390625 L 17.734375 -5.390625 L 15.8125 0 L 2 0 L 2 -0.328125 Z M 2.421875 -0.328125 "/></g></g></g><g fill="#ffffff" fill-opacity="1"><g transform="translate(376.989238, 628.005492)"><g><path d="M 4.890625 -20.421875 C 7.265625 -22.648438 10.34375 -23.765625 14.125 -23.765625 C 17.90625 -23.765625 20.984375 -22.648438 23.359375 -20.421875 C 25.734375 -18.191406 26.921875 -15.265625 26.921875 -11.640625 C 26.921875 -8.023438 25.734375 -5.101562 23.359375 -2.875 C 20.984375 -0.644531 17.90625 0.46875 14.125 0.46875 C 10.34375 0.46875 7.265625 -0.644531 4.890625 -2.875 C 2.515625 -5.101562 1.328125 -8.023438 1.328125 -11.640625 C 1.328125 -15.265625 2.515625 -18.191406 4.890625 -20.421875 Z M 6.703125 -3.59375 C 8.578125 -1.550781 11.046875 -0.53125 14.109375 -0.53125 C 17.171875 -0.53125 19.640625 -1.550781 21.515625 -3.59375 C 23.390625 -5.632812 24.328125 -8.316406 24.328125 -11.640625 C 24.328125 -14.972656 23.390625 -17.660156 21.515625 -19.703125 C 19.640625 -21.742188 17.171875 -22.765625 14.109375 -22.765625 C 11.046875 -22.765625 8.578125 -21.742188 6.703125 -19.703125 C 4.828125 -17.660156 3.890625 -14.972656 3.890625 -11.640625 C 3.890625 -8.316406 4.828125 -5.632812 6.703125 -3.59375 Z M 6.703125 -3.59375 "/></g></g></g><g fill="#ffffff" fill-opacity="1"><g transform="translate(405.212283, 628.005492)"><g><path d="M 19.609375 -20.328125 C 19.609375 -20.867188 19.414062 -21.332031 19.03125 -21.71875 C 18.65625 -22.101562 18.210938 -22.304688 17.703125 -22.328125 L 11.375 -22.328125 L 11.375 -2.390625 C 11.40625 -1.816406 11.625 -1.328125 12.03125 -0.921875 C 12.4375 -0.523438 12.929688 -0.328125 13.515625 -0.328125 L 13.9375 -0.328125 L 13.9375 0 L 6.65625 0 L 6.65625 -0.328125 L 7.09375 -0.328125 C 7.664062 -0.328125 8.15625 -0.523438 8.5625 -0.921875 C 8.976562 -1.328125 9.195312 -1.804688 9.21875 -2.359375 L 9.21875 -22.328125 L 2.890625 -22.328125 C 2.359375 -22.304688 1.910156 -22.101562 1.546875 -21.71875 C 1.179688 -21.332031 1 -20.867188 1 -20.328125 L 1 -19.765625 L 0.671875 -19.734375 L 0.671875 -23.921875 C 1.003906 -23.796875 1.578125 -23.664062 2.390625 -23.53125 C 3.210938 -23.394531 3.96875 -23.328125 4.65625 -23.328125 L 15.90625 -23.328125 C 17 -23.328125 17.90625 -23.410156 18.625 -23.578125 C 19.34375 -23.742188 19.78125 -23.859375 19.9375 -23.921875 L 19.9375 -19.734375 L 19.609375 -19.765625 Z M 19.609375 -20.328125 "/></g></g></g><g fill="#ffffff" fill-opacity="1"><g transform="translate(425.780487, 628.005492)"><g><path d="M 18.203125 -0.328125 C 18.773438 -0.328125 19.265625 -0.53125 19.671875 -0.9375 C 20.085938 -1.351562 20.304688 -1.835938 20.328125 -2.390625 L 20.328125 -11.015625 L 6.71875 -11.015625 L 6.71875 -2.390625 C 6.71875 -1.816406 6.925781 -1.328125 7.34375 -0.921875 C 7.769531 -0.523438 8.273438 -0.328125 8.859375 -0.328125 L 9.28125 -0.328125 L 9.28125 0 L 2 0 L 2 -0.328125 L 2.421875 -0.328125 C 3.003906 -0.328125 3.5 -0.523438 3.90625 -0.921875 C 4.320312 -1.328125 4.539062 -1.816406 4.5625 -2.390625 L 4.5625 -20.90625 C 4.539062 -21.476562 4.320312 -21.960938 3.90625 -22.359375 C 3.5 -22.765625 3.003906 -22.96875 2.421875 -22.96875 L 2 -22.96875 L 2 -23.296875 L 9.28125 -23.296875 L 9.28125 -22.96875 L 8.859375 -22.96875 C 8.273438 -22.96875 7.773438 -22.765625 7.359375 -22.359375 C 6.953125 -21.960938 6.738281 -21.476562 6.71875 -20.90625 L 6.71875 -12.015625 L 20.328125 -12.015625 L 20.328125 -20.90625 C 20.304688 -21.695312 19.953125 -22.296875 19.265625 -22.703125 C 18.929688 -22.878906 18.578125 -22.96875 18.203125 -22.96875 L 17.765625 -22.96875 L 17.765625 -23.296875 L 25.0625 -23.296875 L 25.0625 -22.96875 L 24.625 -22.96875 C 24.050781 -22.96875 23.554688 -22.757812 23.140625 -22.34375 C 22.734375 -21.9375 22.519531 -21.445312 22.5 -20.875 L 22.5 -2.390625 C 22.519531 -1.816406 22.734375 -1.328125 23.140625 -0.921875 C 23.554688 -0.523438 24.050781 -0.328125 24.625 -0.328125 L 25.0625 -0.328125 L 25.0625 0 L 17.765625 0 L 17.765625 -0.328125 Z M 18.203125 -0.328125 "/></g></g></g><g fill="#ffffff" fill-opacity="1"><g transform="translate(452.838664, 628.005492)"><g><path d="M 2.421875 -0.328125 C 3.003906 -0.328125 3.5 -0.53125 3.90625 -0.9375 C 4.320312 -1.351562 4.539062 -1.847656 4.5625 -2.421875 L 4.5625 -20.90625 C 4.539062 -21.476562 4.320312 -21.960938 3.90625 -22.359375 C 3.5 -22.765625 3.003906 -22.96875 2.421875 -22.96875 L 2 -22.96875 L 2 -23.296875 L 9.28125 -23.296875 L 9.28125 -22.96875 L 8.859375 -22.96875 C 8.273438 -22.96875 7.773438 -22.765625 7.359375 -22.359375 C 6.953125 -21.960938 6.738281 -21.476562 6.71875 -20.90625 L 6.71875 -2.421875 C 6.71875 -1.847656 6.925781 -1.351562 7.34375 -0.9375 C 7.769531 -0.53125 8.273438 -0.328125 8.859375 -0.328125 L 9.28125 -0.328125 L 9.28125 0 L 2 0 L 2 -0.328125 Z M 2.421875 -0.328125 "/></g></g></g><g fill="#ffffff" fill-opacity="1"><g transform="translate(464.087938, 628.005492)"><g><path d="M 25.890625 -22.96875 C 25.335938 -22.96875 24.859375 -22.769531 24.453125 -22.375 C 24.054688 -21.988281 23.847656 -21.519531 23.828125 -20.96875 L 23.828125 -3.796875 C 23.828125 -2.503906 23.90625 -1.285156 24.0625 -0.140625 L 24.125 0.46875 L 23.828125 0.46875 L 5.6875 -18.90625 L 5.6875 -2.328125 C 5.6875 -1.773438 5.882812 -1.300781 6.28125 -0.90625 C 6.6875 -0.519531 7.164062 -0.328125 7.71875 -0.328125 L 8.359375 -0.328125 L 8.359375 0 L 1.5 0 L 1.5 -0.328125 L 2.125 -0.328125 C 2.6875 -0.328125 3.164062 -0.519531 3.5625 -0.90625 C 3.957031 -1.300781 4.15625 -1.785156 4.15625 -2.359375 L 4.15625 -19.640625 C 4.15625 -20.992188 4.078125 -22.203125 3.921875 -23.265625 L 3.859375 -23.796875 L 4.1875 -23.796875 L 22.328125 -4.421875 L 22.328125 -20.9375 C 22.304688 -21.507812 22.09375 -21.988281 21.6875 -22.375 C 21.289062 -22.769531 20.816406 -22.96875 20.265625 -22.96875 L 19.640625 -22.96875 L 19.640625 -23.296875 L 26.484375 -23.296875 L 26.484375 -22.96875 Z M 25.890625 -22.96875 "/></g></g></g><g fill="#ffffff" fill-opacity="1"><g transform="translate(492.078018, 628.005492)"><g><path d="M 13.9375 0.46875 C 10.394531 0.445312 7.519531 -0.671875 5.3125 -2.890625 C 3.101562 -5.109375 2 -8.023438 2 -11.640625 C 2 -15.265625 3.101562 -18.191406 5.3125 -20.421875 C 7.519531 -22.648438 10.394531 -23.765625 13.9375 -23.765625 C 17 -23.765625 19.695312 -23.007812 22.03125 -21.5 L 22.703125 -16.8125 L 22.390625 -16.8125 C 21.910156 -18.71875 20.929688 -20.1875 19.453125 -21.21875 C 17.972656 -22.25 16.132812 -22.765625 13.9375 -22.765625 C 11.125 -22.765625 8.847656 -21.742188 7.109375 -19.703125 C 5.367188 -17.660156 4.5 -14.972656 4.5 -11.640625 C 4.5 -8.316406 5.367188 -5.640625 7.109375 -3.609375 C 8.847656 -1.578125 11.125 -0.550781 13.9375 -0.53125 C 15.382812 -0.53125 16.753906 -0.785156 18.046875 -1.296875 C 19.347656 -1.804688 20.488281 -2.515625 21.46875 -3.421875 L 21.46875 -9.3125 C 21.46875 -9.800781 21.316406 -10.171875 21.015625 -10.421875 C 20.710938 -10.679688 20.296875 -10.8125 19.765625 -10.8125 L 19.234375 -10.8125 L 19.234375 -11.15625 L 25.765625 -11.15625 L 25.765625 -10.8125 L 25.265625 -10.8125 C 24.703125 -10.8125 24.273438 -10.679688 23.984375 -10.421875 C 23.703125 -10.171875 23.570312 -9.800781 23.59375 -9.3125 L 23.59375 -3.828125 C 23.019531 -3.078125 22.332031 -2.398438 21.53125 -1.796875 C 20.726562 -1.203125 19.65625 -0.675781 18.3125 -0.21875 C 16.976562 0.238281 15.519531 0.46875 13.9375 0.46875 Z M 13.9375 0.46875 "/></g></g></g><g fill="#ffffff" fill-opacity="1"><g transform="translate(518.636975, 628.005492)"><g/></g></g><g fill="#ffffff" fill-opacity="1"><g transform="translate(526.957442, 628.005492)"><g><path d="M 3.953125 -8.859375 C 2.804688 -7.347656 2.234375 -5.710938 2.234375 -3.953125 C 2.234375 -1.867188 3.109375 -0.25 4.859375 0.90625 C 5.878906 1.59375 7.035156 1.9375 8.328125 1.9375 C 9.628906 1.9375 10.757812 1.679688 11.71875 1.171875 C 13.507812 0.234375 14.519531 -1.332031 14.75 -3.53125 C 14.769531 -3.6875 14.78125 -3.84375 14.78125 -4 C 14.78125 -4.8125 14.550781 -5.695312 14.09375 -6.65625 C 13.632812 -7.613281 12.894531 -8.488281 11.875 -9.28125 L 5.890625 -14.015625 C 4.578125 -15.035156 3.921875 -16.351562 3.921875 -17.96875 C 3.921875 -19.59375 4.441406 -20.960938 5.484375 -22.078125 C 6.535156 -23.203125 7.945312 -23.765625 9.71875 -23.765625 C 10.601562 -23.765625 11.566406 -23.65625 12.609375 -23.4375 L 13.9375 -23.4375 L 14.015625 -19.34375 L 13.671875 -19.34375 C 13.648438 -20.40625 13.269531 -21.238281 12.53125 -21.84375 C 11.789062 -22.457031 10.859375 -22.765625 9.734375 -22.765625 C 8.609375 -22.765625 7.671875 -22.390625 6.921875 -21.640625 C 6.171875 -20.898438 5.796875 -19.945312 5.796875 -18.78125 C 5.796875 -17.625 6.28125 -16.65625 7.25 -15.875 L 13.40625 -11.015625 C 15.851562 -9.085938 17.078125 -6.757812 17.078125 -4.03125 C 17.078125 -1.988281 16.265625 -0.234375 14.640625 1.234375 C 13.242188 2.492188 11.378906 3.125 9.046875 3.125 C 7.628906 3.125 6.367188 2.859375 5.265625 2.328125 C 3.171875 1.347656 1.914062 -0.3125 1.5 -2.65625 C 1.425781 -3.007812 1.390625 -3.457031 1.390625 -4 C 1.390625 -4.550781 1.546875 -5.296875 1.859375 -6.234375 C 2.171875 -7.179688 2.769531 -8.128906 3.65625 -9.078125 Z M 3.953125 -8.859375 "/></g></g></g><g fill="#ffffff" fill-opacity="1"><g transform="translate(545.229199, 628.005492)"><g><path d="M 19.609375 -20.328125 C 19.609375 -20.867188 19.414062 -21.332031 19.03125 -21.71875 C 18.65625 -22.101562 18.210938 -22.304688 17.703125 -22.328125 L 11.375 -22.328125 L 11.375 -2.390625 C 11.40625 -1.816406 11.625 -1.328125 12.03125 -0.921875 C 12.4375 -0.523438 12.929688 -0.328125 13.515625 -0.328125 L 13.9375 -0.328125 L 13.9375 0 L 6.65625 0 L 6.65625 -0.328125 L 7.09375 -0.328125 C 7.664062 -0.328125 8.15625 -0.523438 8.5625 -0.921875 C 8.976562 -1.328125 9.195312 -1.804688 9.21875 -2.359375 L 9.21875 -22.328125 L 2.890625 -22.328125 C 2.359375 -22.304688 1.910156 -22.101562 1.546875 -21.71875 C 1.179688 -21.332031 1 -20.867188 1 -20.328125 L 1 -19.765625 L 0.671875 -19.734375 L 0.671875 -23.921875 C 1.003906 -23.796875 1.578125 -23.664062 2.390625 -23.53125 C 3.210938 -23.394531 3.96875 -23.328125 4.65625 -23.328125 L 15.90625 -23.328125 C 17 -23.328125 17.90625 -23.410156 18.625 -23.578125 C 19.34375 -23.742188 19.78125 -23.859375 19.9375 -23.921875 L 19.9375 -19.734375 L 19.609375 -19.765625 Z M 19.609375 -20.328125 "/></g></g></g><g fill="#ffffff" fill-opacity="1"><g transform="translate(565.797403, 628.005492)"><g><path d="M 4.890625 -20.421875 C 7.265625 -22.648438 10.34375 -23.765625 14.125 -23.765625 C 17.90625 -23.765625 20.984375 -22.648438 23.359375 -20.421875 C 25.734375 -18.191406 26.921875 -15.265625 26.921875 -11.640625 C 26.921875 -8.023438 25.734375 -5.101562 23.359375 -2.875 C 20.984375 -0.644531 17.90625 0.46875 14.125 0.46875 C 10.34375 0.46875 7.265625 -0.644531 4.890625 -2.875 C 2.515625 -5.101562 1.328125 -8.023438 1.328125 -11.640625 C 1.328125 -15.265625 2.515625 -18.191406 4.890625 -20.421875 Z M 6.703125 -3.59375 C 8.578125 -1.550781 11.046875 -0.53125 14.109375 -0.53125 C 17.171875 -0.53125 19.640625 -1.550781 21.515625 -3.59375 C 23.390625 -5.632812 24.328125 -8.316406 24.328125 -11.640625 C 24.328125 -14.972656 23.390625 -17.660156 21.515625 -19.703125 C 19.640625 -21.742188 17.171875 -22.765625 14.109375 -22.765625 C 11.046875 -22.765625 8.578125 -21.742188 6.703125 -19.703125 C 4.828125 -17.660156 3.890625 -14.972656 3.890625 -11.640625 C 3.890625 -8.316406 4.828125 -5.632812 6.703125 -3.59375 Z M 6.703125 -3.59375 "/></g></g></g><g fill="#ffffff" fill-opacity="1"><g transform="translate(594.020447, 628.005492)"><g><path d="M 8.859375 -22.265625 L 6.71875 -22.265625 L 6.71875 -2.421875 C 6.71875 -1.847656 6.921875 -1.351562 7.328125 -0.9375 C 7.742188 -0.53125 8.253906 -0.328125 8.859375 -0.328125 L 9.25 -0.328125 L 9.28125 0 L 2 0 L 2 -0.328125 L 2.421875 -0.328125 C 3.003906 -0.328125 3.5 -0.523438 3.90625 -0.921875 C 4.320312 -1.328125 4.539062 -1.816406 4.5625 -2.390625 L 4.5625 -20.875 C 4.539062 -21.445312 4.320312 -21.9375 3.90625 -22.34375 C 3.5 -22.757812 3.003906 -22.96875 2.421875 -22.96875 L 2 -22.96875 L 2 -23.296875 L 10.984375 -23.296875 C 13.003906 -23.296875 14.585938 -22.734375 15.734375 -21.609375 C 16.890625 -20.492188 17.46875 -19.039062 17.46875 -17.25 C 17.46875 -15.46875 16.914062 -13.925781 15.8125 -12.625 C 14.71875 -11.332031 13.382812 -10.6875 11.8125 -10.6875 C 12.144531 -10.53125 12.535156 -10.222656 12.984375 -9.765625 C 13.441406 -9.304688 13.851562 -8.835938 14.21875 -8.359375 C 16.125 -5.628906 17.363281 -3.945312 17.9375 -3.3125 C 18.507812 -2.675781 18.914062 -2.242188 19.15625 -2.015625 C 19.40625 -1.785156 19.675781 -1.554688 19.96875 -1.328125 C 20.257812 -1.109375 20.546875 -0.929688 20.828125 -0.796875 C 21.472656 -0.484375 22.160156 -0.328125 22.890625 -0.328125 L 22.890625 0 L 21.0625 0 C 20.113281 0 19.226562 -0.171875 18.40625 -0.515625 C 17.582031 -0.859375 16.960938 -1.210938 16.546875 -1.578125 C 16.140625 -1.941406 15.785156 -2.296875 15.484375 -2.640625 C 15.191406 -2.984375 14.367188 -4.128906 13.015625 -6.078125 C 11.660156 -8.035156 10.867188 -9.148438 10.640625 -9.421875 C 10.421875 -9.703125 10.191406 -9.976562 9.953125 -10.25 C 9.242188 -11 8.535156 -11.375 7.828125 -11.375 L 7.828125 -11.71875 C 8.003906 -11.695312 8.234375 -11.6875 8.515625 -11.6875 C 8.804688 -11.6875 9.160156 -11.695312 9.578125 -11.71875 C 12.335938 -11.78125 14.070312 -12.929688 14.78125 -15.171875 C 14.914062 -15.617188 14.984375 -16.035156 14.984375 -16.421875 C 14.984375 -16.804688 14.984375 -17.054688 14.984375 -17.171875 C 14.929688 -18.660156 14.539062 -19.859375 13.8125 -20.765625 C 13.082031 -21.671875 12.09375 -22.160156 10.84375 -22.234375 C 10.3125 -22.253906 9.648438 -22.265625 8.859375 -22.265625 Z M 8.859375 -22.265625 "/></g></g></g><g fill="#ffffff" fill-opacity="1"><g transform="translate(616.552286, 628.005492)"><g><path d="M 2.421875 -0.328125 C 3.003906 -0.328125 3.5 -0.53125 3.90625 -0.9375 C 4.320312 -1.351562 4.539062 -1.847656 4.5625 -2.421875 L 4.5625 -21.0625 C 4.5625 -21.59375 4.347656 -22.039062 3.921875 -22.40625 C 3.503906 -22.78125 3.003906 -22.96875 2.421875 -22.96875 L 2.03125 -22.96875 L 2 -23.296875 L 11.75 -23.296875 C 12.4375 -23.296875 13.179688 -23.363281 13.984375 -23.5 C 14.796875 -23.632812 15.367188 -23.765625 15.703125 -23.890625 L 15.703125 -19.703125 L 15.375 -19.703125 L 15.375 -20.296875 C 15.375 -20.828125 15.191406 -21.28125 14.828125 -21.65625 C 14.460938 -22.039062 14.023438 -22.242188 13.515625 -22.265625 L 6.71875 -22.265625 L 6.71875 -11.984375 L 12.34375 -11.984375 C 12.789062 -12.003906 13.164062 -12.171875 13.46875 -12.484375 C 13.78125 -12.796875 13.9375 -13.179688 13.9375 -13.640625 L 13.9375 -14.109375 L 14.28125 -14.109375 L 14.28125 -8.859375 L 13.9375 -8.859375 L 13.9375 -9.359375 C 13.9375 -9.796875 13.785156 -10.171875 13.484375 -10.484375 C 13.191406 -10.796875 12.820312 -10.960938 12.375 -10.984375 L 6.71875 -10.984375 L 6.71875 -1.03125 L 11.484375 -1.03125 C 13.117188 -1.03125 14.367188 -1.394531 15.234375 -2.125 C 16.109375 -2.863281 16.832031 -3.953125 17.40625 -5.390625 L 17.734375 -5.390625 L 15.8125 0 L 2 0 L 2 -0.328125 Z M 2.421875 -0.328125 "/></g></g></g></svg>