<?xml version="1.0" encoding="UTF-8"?>
<svg xmlns="http://www.w3.org/2000/svg" xmlns:xlink="http://www.w3.org/1999/xlink" width="160px" height="160px" viewBox="0 0 160 160" version="1.1">
<defs>
<clipPath id="clip1">
  <path d="M 132.691406 61.011719 L 149.332031 61.011719 L 149.332031 87.894531 L 132.691406 87.894531 Z M 132.691406 61.011719 "/>
</clipPath>
<clipPath id="clip2">
  <path d="M 145.554688 60.5625 L 150.351562 85.382812 L 137.78125 87.8125 L 132.988281 62.988281 Z M 145.554688 60.5625 "/>
</clipPath>
<clipPath id="clip3">
  <path d="M 150.355469 85.410156 L 145.558594 60.585938 L 132.992188 63.015625 L 137.785156 87.835938 Z M 150.355469 85.410156 "/>
</clipPath>
<clipPath id="clip4">
  <path d="M 150.355469 85.410156 L 145.558594 60.585938 L 132.992188 63.015625 L 137.785156 87.835938 Z M 150.355469 85.410156 "/>
</clipPath>
<clipPath id="clip5">
  <path d="M 82 59.734375 L 104.535156 59.734375 L 104.535156 85.332031 L 82 85.332031 Z M 82 59.734375 "/>
</clipPath>
<clipPath id="clip6">
  <path d="M 75.210938 75.363281 L 94.625 54.523438 L 105.160156 64.34375 L 85.742188 85.179688 Z M 75.210938 75.363281 "/>
</clipPath>
<clipPath id="clip7">
  <path d="M 94.613281 54.539062 L 75.195312 75.375 L 85.730469 85.191406 L 105.148438 64.359375 Z M 94.613281 54.539062 "/>
</clipPath>
<clipPath id="clip8">
  <path d="M 94.613281 54.539062 L 75.195312 75.375 L 85.730469 85.191406 L 105.148438 64.359375 Z M 94.613281 54.539062 "/>
</clipPath>
</defs>
<g id="surface1">
<path style=" stroke:none;fill-rule:nonzero;fill:rgb(100%,100%,100%);fill-opacity:1;" d="M 45.742188 91.050781 L 63.683594 69.5625 L 63.683594 68.257812 L 44.296875 68.257812 L 44.296875 69.5625 L 61.871094 69.5625 L 43.824219 91.050781 L 43.824219 92.355469 L 63.796875 92.355469 L 63.796875 91.050781 Z M 45.742188 91.050781 "/>
<path style=" stroke:none;fill-rule:nonzero;fill:rgb(100%,100%,100%);fill-opacity:1;" d="M 80.285156 92.96875 C 88.148438 92.96875 91.878906 87.863281 91.878906 80.25 C 91.878906 72.75 88.148438 67.601562 80.285156 67.601562 C 72.421875 67.601562 68.6875 72.714844 68.6875 80.25 C 68.6875 87.898438 72.421875 92.96875 80.285156 92.96875 Z M 70.320312 80.25 C 70.320312 72.601562 73.613281 68.910156 80.285156 68.910156 C 86.953125 68.910156 90.246094 72.601562 90.246094 80.25 C 90.246094 87.9375 86.953125 91.671875 80.285156 91.671875 C 73.613281 91.671875 70.320312 87.9375 70.320312 80.25 Z M 70.320312 80.25 "/>
<path style=" stroke:none;fill-rule:nonzero;fill:rgb(100%,100%,100%);fill-opacity:1;" d="M 114.933594 68.257812 L 114.933594 79.203125 L 98.839844 79.203125 L 98.839844 68.257812 L 97.320312 68.257812 L 97.320312 92.355469 L 98.839844 92.355469 L 98.839844 80.503906 L 114.933594 80.503906 L 114.933594 92.355469 L 116.453125 92.355469 L 116.453125 68.257812 Z M 114.933594 68.257812 "/>
<path style=" stroke:none;fill-rule:nonzero;fill:rgb(100%,100%,100%);fill-opacity:1;" d="M 140.949219 92.355469 L 142.546875 92.355469 L 133.015625 68.257812 L 130.875 68.257812 L 121.339844 92.355469 L 122.902344 92.355469 L 125.695312 85.324219 L 138.160156 85.324219 Z M 126.199219 84.023438 L 131.925781 69.523438 L 137.652344 84.023438 Z M 126.199219 84.023438 "/>
<path style=" stroke:none;fill-rule:nonzero;fill:rgb(100%,100%,100%);fill-opacity:1;" d="M 47.1875 98.765625 C 48.554688 98.765625 49.179688 97.765625 49.179688 96.644531 C 49.179688 95.515625 48.554688 94.523438 47.1875 94.523438 C 45.824219 94.523438 45.199219 95.515625 45.199219 96.644531 C 45.199219 97.765625 45.824219 98.765625 47.1875 98.765625 Z M 47.1875 98.105469 C 46.304688 98.105469 45.980469 97.417969 45.980469 96.644531 C 45.980469 95.863281 46.304688 95.175781 47.1875 95.175781 C 48.074219 95.175781 48.394531 95.863281 48.394531 96.644531 C 48.394531 97.417969 48.074219 98.105469 47.1875 98.105469 Z M 47.1875 98.105469 "/>
<path style=" stroke:none;fill-rule:nonzero;fill:rgb(100%,100%,100%);fill-opacity:1;" d="M 56.109375 94.582031 L 56.109375 97.464844 L 54.378906 94.582031 L 53.644531 94.582031 L 53.644531 98.703125 L 54.351562 98.703125 L 54.351562 95.808594 L 56.078125 98.703125 L 56.824219 98.703125 L 56.824219 94.582031 Z M 56.109375 94.582031 "/>
<path style=" stroke:none;fill-rule:nonzero;fill:rgb(100%,100%,100%);fill-opacity:1;" d="M 61.582031 98.703125 L 64.082031 98.703125 L 64.082031 98.003906 L 62.320312 98.003906 L 62.320312 94.582031 L 61.582031 94.582031 Z M 61.582031 98.703125 "/>
<path style=" stroke:none;fill-rule:nonzero;fill:rgb(100%,100%,100%);fill-opacity:1;" d="M 68.375 98.703125 L 69.117188 98.703125 L 69.117188 94.582031 L 68.375 94.582031 Z M 68.375 98.703125 "/>
<path style=" stroke:none;fill-rule:nonzero;fill:rgb(100%,100%,100%);fill-opacity:1;" d="M 76.34375 94.582031 L 76.34375 97.464844 L 74.609375 94.582031 L 73.875 94.582031 L 73.875 98.703125 L 74.582031 98.703125 L 74.582031 95.808594 L 76.308594 98.703125 L 77.054688 98.703125 L 77.054688 94.582031 Z M 76.34375 94.582031 "/>
<path style=" stroke:none;fill-rule:nonzero;fill:rgb(100%,100%,100%);fill-opacity:1;" d="M 81.8125 98.703125 L 84.550781 98.703125 L 84.550781 98.003906 L 82.550781 98.003906 L 82.550781 96.984375 L 84.410156 96.984375 L 84.410156 96.304688 L 82.550781 96.304688 L 82.550781 95.265625 L 84.550781 95.265625 L 84.550781 94.582031 L 81.8125 94.582031 Z M 81.8125 98.703125 "/>
<path style=" stroke:none;fill-rule:nonzero;fill:rgb(100%,100%,100%);fill-opacity:1;" d="M 95.976562 98.765625 C 96.796875 98.765625 97.457031 98.34375 97.78125 97.578125 L 97.09375 97.296875 C 96.867188 97.851562 96.507812 98.058594 95.976562 98.058594 C 95.09375 98.058594 94.714844 97.429688 94.714844 96.609375 C 94.714844 95.851562 95.09375 95.222656 95.960938 95.222656 C 96.503906 95.222656 96.929688 95.429688 97.082031 95.96875 L 97.777344 95.695312 C 97.441406 94.929688 96.789062 94.515625 95.96875 94.515625 C 94.617188 94.515625 93.980469 95.511719 93.980469 96.644531 C 93.980469 97.769531 94.621094 98.765625 95.976562 98.765625 Z M 95.976562 98.765625 "/>
<path style=" stroke:none;fill-rule:nonzero;fill:rgb(100%,100%,100%);fill-opacity:1;" d="M 102.148438 98.703125 L 104.648438 98.703125 L 104.648438 98.003906 L 102.886719 98.003906 L 102.886719 94.582031 L 102.148438 94.582031 Z M 102.148438 98.703125 "/>
<path style=" stroke:none;fill-rule:nonzero;fill:rgb(100%,100%,100%);fill-opacity:1;" d="M 110.636719 98.765625 C 112.003906 98.765625 112.628906 97.765625 112.628906 96.644531 C 112.628906 95.515625 112.003906 94.523438 110.636719 94.523438 C 109.277344 94.523438 108.648438 95.515625 108.648438 96.644531 C 108.648438 97.765625 109.277344 98.765625 110.636719 98.765625 Z M 110.636719 98.105469 C 109.757812 98.105469 109.429688 97.417969 109.429688 96.644531 C 109.429688 95.863281 109.757812 95.175781 110.636719 95.175781 C 111.523438 95.175781 111.84375 95.863281 111.84375 96.644531 C 111.84375 97.417969 111.523438 98.105469 110.636719 98.105469 Z M 110.636719 98.105469 "/>
<path style=" stroke:none;fill-rule:nonzero;fill:rgb(100%,100%,100%);fill-opacity:1;" d="M 117.914062 98.703125 L 118.65625 98.703125 L 118.65625 95.242188 L 119.941406 95.242188 L 119.941406 94.582031 L 116.621094 94.582031 L 116.621094 95.242188 L 117.914062 95.242188 Z M 117.914062 98.703125 "/>
<path style=" stroke:none;fill-rule:nonzero;fill:rgb(100%,100%,100%);fill-opacity:1;" d="M 124.234375 98.703125 L 124.972656 98.703125 L 124.972656 94.582031 L 124.234375 94.582031 Z M 124.234375 98.703125 "/>
<path style=" stroke:none;fill-rule:nonzero;fill:rgb(100%,100%,100%);fill-opacity:1;" d="M 132.199219 94.582031 L 132.199219 97.464844 L 130.464844 94.582031 L 129.730469 94.582031 L 129.730469 98.703125 L 130.4375 98.703125 L 130.4375 95.808594 L 132.164062 98.703125 L 132.910156 98.703125 L 132.910156 94.582031 Z M 132.199219 94.582031 "/>
<path style=" stroke:none;fill-rule:nonzero;fill:rgb(100%,100%,100%);fill-opacity:1;" d="M 139.585938 96.476562 L 139.585938 97.070312 L 140.492188 97.070312 C 140.46875 97.742188 140.015625 98.097656 139.367188 98.097656 C 138.488281 98.097656 138.109375 97.429688 138.109375 96.609375 C 138.109375 95.851562 138.488281 95.164062 139.355469 95.164062 C 139.878906 95.164062 140.3125 95.410156 140.5 95.96875 L 141.160156 95.695312 C 140.828125 94.929688 140.175781 94.515625 139.359375 94.515625 C 138 94.515625 137.375 95.511719 137.375 96.644531 C 137.375 97.769531 138.015625 98.765625 139.367188 98.765625 C 139.914062 98.765625 140.367188 98.511719 140.585938 98.125 L 140.652344 98.703125 L 141.242188 98.703125 L 141.242188 96.476562 Z M 139.585938 96.476562 "/>
<g clip-path="url(#clip1)" clip-rule="nonzero">
<g clip-path="url(#clip2)" clip-rule="nonzero">
<g clip-path="url(#clip3)" clip-rule="nonzero">
<g clip-path="url(#clip4)" clip-rule="nonzero">
<path style="fill:none;stroke-width:7;stroke-linecap:butt;stroke-linejoin:miter;stroke:rgb(0%,0%,0%);stroke-opacity:1;stroke-miterlimit:4;" d="M 418.197314 140.081796 C 414.055022 125.375633 406.254832 110.490805 390.907627 104.655293 C 380.43249 100.723284 368.544892 104.644985 360.270687 110.358869 C 348.815959 118.386628 345.910711 135.982021 350.812048 149.113721 C 356.182988 163.31295 374.442612 171.433894 372.697271 188.624908 C 371.081638 204.1858 368.732108 220.068041 370.010451 235.510695 C 452.873563 277.759375 539.672278 311.484276 624.416541 349.710849 C 632.629935 353.370402 638.496539 364.619973 633.412613 371.762713 C 626.37102 381.605104 611.452722 375.24021 600.753988 374.293992 C 433.303783 358.784252 265.91744 341.30059 98.580481 324.074778 C 90.825107 323.268171 82.389943 317.06626 85.410575 307.918385 C 88.986926 297.057358 102.86039 296.58241 112.166777 294.41199 C 196.949579 274.232596 282.212653 256.099388 366.943175 236.108498 L 370.029808 235.150291 " transform="matrix(-0.00853897,-0.0441971,-0.0438127,0.00846473,155.278646,88.137207)"/>
</g>
</g>
</g>
</g>
<g clip-path="url(#clip5)" clip-rule="nonzero">
<g clip-path="url(#clip6)" clip-rule="nonzero">
<g clip-path="url(#clip7)" clip-rule="nonzero">
<g clip-path="url(#clip8)" clip-rule="nonzero">
<path style="fill:none;stroke-width:7;stroke-linecap:butt;stroke-linejoin:miter;stroke:rgb(0%,0%,0%);stroke-opacity:1;stroke-miterlimit:4;" d="M 418.132758 140.14764 C 413.965677 125.382489 406.250855 110.468476 390.84335 104.688362 C 380.51277 100.708643 368.495109 104.603433 360.304333 110.39815 C 348.811634 118.401603 345.938187 136.003863 350.809758 149.092995 C 356.211527 163.318911 374.425121 171.420511 372.737686 188.650362 C 371.097706 204.11752 368.819883 220.047636 370.014258 235.523958 C 452.910822 277.698636 539.712786 311.534615 624.430765 349.682196 C 632.625024 353.352746 638.523845 364.644306 633.431213 371.759548 C 626.362242 381.58665 611.427363 375.294428 600.764949 374.298215 C 433.342621 358.796039 265.960073 341.311319 98.641553 324.099477 C 90.873684 323.275378 82.373415 317.084279 85.433534 307.950201 C 88.98041 297.147855 102.85891 296.598764 112.208654 294.339827 C 196.908354 274.209862 282.225309 256.149115 366.981362 236.072176 L 370.002744 235.194179 " transform="matrix(-0.0345733,0.0371002,0.0367424,0.0342399,93.830293,48.247165)"/>
</g>
</g>
</g>
</g>
</g>
</svg>
