<?xml version="1.0" encoding="UTF-8"?>
<svg xmlns="http://www.w3.org/2000/svg" xmlns:xlink="http://www.w3.org/1999/xlink" width="160px" height="160px" viewBox="0 0 160 160" version="1.1">
<defs>
<clipPath id="clip1">
  <path d="M 132.691406 61.011719 L 149.332031 61.011719 L 149.332031 87.894531 L 132.691406 87.894531 Z M 132.691406 61.011719 "/>
</clipPath>
<clipPath id="clip2">
  <path d="M 145.554688 60.5625 L 150.351562 85.382812 L 137.78125 87.8125 L 132.988281 62.988281 Z M 145.554688 60.5625 "/>
</clipPath>
<clipPath id="clip3">
  <path d="M 150.355469 85.410156 L 145.558594 60.585938 L 132.992188 63.015625 L 137.785156 87.835938 Z M 150.355469 85.410156 "/>
</clipPath>
<clipPath id="clip4">
  <path d="M 150.355469 85.410156 L 145.558594 60.585938 L 132.992188 63.015625 L 137.785156 87.835938 Z M 150.355469 85.410156 "/>
</clipPath>
<clipPath id="clip5">
  <path d="M 82 59.734375 L 104.535156 59.734375 L 104.535156 85.332031 L 82 85.332031 Z M 82 59.734375 "/>
</clipPath>
<clipPath id="clip6">
  <path d="M 75.210938 75.363281 L 94.625 54.523438 L 105.160156 64.34375 L 85.742188 85.179688 Z M 75.210938 75.363281 "/>
</clipPath>
<clipPath id="clip7">
  <path d="M 94.613281 54.539062 L 75.195312 75.375 L 85.730469 85.191406 L 105.148438 64.359375 Z M 94.613281 54.539062 "/>
</clipPath>
<clipPath id="clip8">
  <path d="M 94.613281 54.539062 L 75.195312 75.375 L 85.730469 85.191406 L 105.148438 64.359375 Z M 94.613281 54.539062 "/>
</clipPath>
</defs>
<g id="surface1">
<path style=" stroke:none;fill-rule:nonzero;fill:rgb(0%,0%,0%);fill-opacity:1;" d="M 45.75 90.894531 L 63.691406 69.40625 L 63.691406 68.101562 L 44.304688 68.101562 L 44.304688 69.40625 L 61.878906 69.40625 L 43.832031 90.894531 L 43.832031 92.199219 L 63.804688 92.199219 L 63.804688 90.894531 Z M 45.75 90.894531 "/>
<path style=" stroke:none;fill-rule:nonzero;fill:rgb(0%,0%,0%);fill-opacity:1;" d="M 80.292969 92.8125 C 88.152344 92.8125 91.886719 87.707031 91.886719 80.09375 C 91.886719 72.59375 88.152344 67.445312 80.292969 67.445312 C 72.425781 67.445312 68.695312 72.558594 68.695312 80.09375 C 68.695312 87.738281 72.425781 92.8125 80.292969 92.8125 Z M 70.328125 80.09375 C 70.328125 72.445312 73.621094 68.753906 80.292969 68.753906 C 86.960938 68.753906 90.253906 72.445312 90.253906 80.09375 C 90.253906 87.78125 86.960938 91.511719 80.292969 91.511719 C 73.621094 91.511719 70.328125 87.78125 70.328125 80.09375 Z M 70.328125 80.09375 "/>
<path style=" stroke:none;fill-rule:nonzero;fill:rgb(0%,0%,0%);fill-opacity:1;" d="M 114.9375 68.101562 L 114.9375 79.046875 L 98.84375 79.046875 L 98.84375 68.101562 L 97.324219 68.101562 L 97.324219 92.199219 L 98.84375 92.199219 L 98.84375 80.347656 L 114.9375 80.347656 L 114.9375 92.199219 L 116.457031 92.199219 L 116.457031 68.101562 Z M 114.9375 68.101562 "/>
<path style=" stroke:none;fill-rule:nonzero;fill:rgb(0%,0%,0%);fill-opacity:1;" d="M 140.953125 92.199219 L 142.550781 92.199219 L 133.019531 68.101562 L 130.878906 68.101562 L 121.34375 92.199219 L 122.90625 92.199219 L 125.699219 85.167969 L 138.164062 85.167969 Z M 126.207031 83.867188 L 131.933594 69.367188 L 137.660156 83.867188 Z M 126.207031 83.867188 "/>
<path style=" stroke:none;fill-rule:nonzero;fill:rgb(0%,0%,0%);fill-opacity:1;" d="M 47.1875 98.765625 C 48.554688 98.765625 49.179688 97.765625 49.179688 96.644531 C 49.179688 95.515625 48.554688 94.523438 47.1875 94.523438 C 45.824219 94.523438 45.199219 95.515625 45.199219 96.644531 C 45.199219 97.765625 45.824219 98.765625 47.1875 98.765625 Z M 47.1875 98.105469 C 46.304688 98.105469 45.980469 97.417969 45.980469 96.644531 C 45.980469 95.863281 46.304688 95.175781 47.1875 95.175781 C 48.074219 95.175781 48.394531 95.863281 48.394531 96.644531 C 48.394531 97.417969 48.074219 98.105469 47.1875 98.105469 Z M 47.1875 98.105469 "/>
<path style=" stroke:none;fill-rule:nonzero;fill:rgb(0%,0%,0%);fill-opacity:1;" d="M 56.109375 94.582031 L 56.109375 97.464844 L 54.378906 94.582031 L 53.644531 94.582031 L 53.644531 98.703125 L 54.351562 98.703125 L 54.351562 95.808594 L 56.078125 98.703125 L 56.824219 98.703125 L 56.824219 94.582031 Z M 56.109375 94.582031 "/>
<path style=" stroke:none;fill-rule:nonzero;fill:rgb(0%,0%,0%);fill-opacity:1;" d="M 61.582031 98.703125 L 64.082031 98.703125 L 64.082031 98.003906 L 62.320312 98.003906 L 62.320312 94.582031 L 61.582031 94.582031 Z M 61.582031 98.703125 "/>
<path style=" stroke:none;fill-rule:nonzero;fill:rgb(0%,0%,0%);fill-opacity:1;" d="M 68.375 98.703125 L 69.117188 98.703125 L 69.117188 94.582031 L 68.375 94.582031 Z M 68.375 98.703125 "/>
<path style=" stroke:none;fill-rule:nonzero;fill:rgb(0%,0%,0%);fill-opacity:1;" d="M 76.34375 94.582031 L 76.34375 97.464844 L 74.609375 94.582031 L 73.875 94.582031 L 73.875 98.703125 L 74.582031 98.703125 L 74.582031 95.808594 L 76.308594 98.703125 L 77.054688 98.703125 L 77.054688 94.582031 Z M 76.34375 94.582031 "/>
<path style=" stroke:none;fill-rule:nonzero;fill:rgb(0%,0%,0%);fill-opacity:1;" d="M 81.8125 98.703125 L 84.550781 98.703125 L 84.550781 98.003906 L 82.550781 98.003906 L 82.550781 96.984375 L 84.410156 96.984375 L 84.410156 96.304688 L 82.550781 96.304688 L 82.550781 95.265625 L 84.550781 95.265625 L 84.550781 94.582031 L 81.8125 94.582031 Z M 81.8125 98.703125 "/>
<path style=" stroke:none;fill-rule:nonzero;fill:rgb(0%,0%,0%);fill-opacity:1;" d="M 95.976562 98.765625 C 96.796875 98.765625 97.457031 98.34375 97.78125 97.578125 L 97.09375 97.296875 C 96.867188 97.851562 96.507812 98.058594 95.976562 98.058594 C 95.09375 98.058594 94.714844 97.429688 94.714844 96.609375 C 94.714844 95.851562 95.09375 95.222656 95.960938 95.222656 C 96.503906 95.222656 96.929688 95.429688 97.082031 95.96875 L 97.777344 95.695312 C 97.441406 94.929688 96.789062 94.515625 95.96875 94.515625 C 94.617188 94.515625 93.980469 95.511719 93.980469 96.644531 C 93.980469 97.769531 94.621094 98.765625 95.976562 98.765625 Z M 95.976562 98.765625 "/>
<path style=" stroke:none;fill-rule:nonzero;fill:rgb(0%,0%,0%);fill-opacity:1;" d="M 102.148438 98.703125 L 104.648438 98.703125 L 104.648438 98.003906 L 102.886719 98.003906 L 102.886719 94.582031 L 102.148438 94.582031 Z M 102.148438 98.703125 "/>
<path style=" stroke:none;fill-rule:nonzero;fill:rgb(0%,0%,0%);fill-opacity:1;" d="M 110.636719 98.765625 C 112.003906 98.765625 112.628906 97.765625 112.628906 96.644531 C 112.628906 95.515625 112.003906 94.523438 110.636719 94.523438 C 109.277344 94.523438 108.648438 95.515625 108.648438 96.644531 C 108.648438 97.765625 109.277344 98.765625 110.636719 98.765625 Z M 110.636719 98.105469 C 109.757812 98.105469 109.429688 97.417969 109.429688 96.644531 C 109.429688 95.863281 109.757812 95.175781 110.636719 95.175781 C 111.523438 95.175781 111.84375 95.863281 111.84375 96.644531 C 111.84375 97.417969 111.523438 98.105469 110.636719 98.105469 Z M 110.636719 98.105469 "/>
<path style=" stroke:none;fill-rule:nonzero;fill:rgb(0%,0%,0%);fill-opacity:1;" d="M 117.914062 98.703125 L 118.65625 98.703125 L 118.65625 95.242188 L 119.941406 95.242188 L 119.941406 94.582031 L 116.621094 94.582031 L 116.621094 95.242188 L 117.914062 95.242188 Z M 117.914062 98.703125 "/>
<path style=" stroke:none;fill-rule:nonzero;fill:rgb(0%,0%,0%);fill-opacity:1;" d="M 124.234375 98.703125 L 124.972656 98.703125 L 124.972656 94.582031 L 124.234375 94.582031 Z M 124.234375 98.703125 "/>
<path style=" stroke:none;fill-rule:nonzero;fill:rgb(0%,0%,0%);fill-opacity:1;" d="M 132.199219 94.582031 L 132.199219 97.464844 L 130.464844 94.582031 L 129.730469 94.582031 L 129.730469 98.703125 L 130.4375 98.703125 L 130.4375 95.808594 L 132.164062 98.703125 L 132.910156 98.703125 L 132.910156 94.582031 Z M 132.199219 94.582031 "/>
<path style=" stroke:none;fill-rule:nonzero;fill:rgb(0%,0%,0%);fill-opacity:1;" d="M 139.585938 96.476562 L 139.585938 97.070312 L 140.492188 97.070312 C 140.46875 97.742188 140.015625 98.097656 139.367188 98.097656 C 138.488281 98.097656 138.109375 97.429688 138.109375 96.609375 C 138.109375 95.851562 138.488281 95.164062 139.355469 95.164062 C 139.878906 95.164062 140.3125 95.410156 140.5 95.96875 L 141.160156 95.695312 C 140.828125 94.929688 140.175781 94.515625 139.359375 94.515625 C 138 94.515625 137.375 95.511719 137.375 96.644531 C 137.375 97.769531 138.015625 98.765625 139.367188 98.765625 C 139.914062 98.765625 140.367188 98.511719 140.585938 98.125 L 140.652344 98.703125 L 141.242188 98.703125 L 141.242188 96.476562 Z M 139.585938 96.476562 "/>
<g clip-path="url(#clip1)" clip-rule="nonzero">
<g clip-path="url(#clip2)" clip-rule="nonzero">
<g clip-path="url(#clip3)" clip-rule="nonzero">
<g clip-path="url(#clip4)" clip-rule="nonzero">
<path style="fill:none;stroke-width:7;stroke-linecap:butt;stroke-linejoin:miter;stroke:rgb(0%,0%,0%);stroke-opacity:1;stroke-miterlimit:4;" d="M 418.197348 140.081705 C 414.055056 125.375542 406.254864 110.490713 390.90766 104.655201 C 380.432523 100.723191 368.544924 104.644893 360.270719 110.358777 C 348.815991 118.386536 345.910744 135.981929 350.812081 149.11363 C 356.183021 163.312859 374.442645 171.433803 372.697304 188.624818 C 371.081671 204.18571 368.732142 220.067952 370.010485 235.510606 C 452.873599 277.759287 539.672315 311.484189 624.41658 349.710762 C 632.629974 353.370315 638.496579 364.619887 633.412652 371.762628 C 626.371059 381.605019 611.452761 375.240124 600.754027 374.293906 C 433.303819 358.784166 265.917473 341.300504 98.580512 324.074692 C 90.825138 323.268085 82.389973 317.066174 85.410605 307.918298 C 88.986956 297.057271 102.860421 296.582323 112.166808 294.411903 C 196.94961 274.232508 282.212686 256.0993 366.943209 236.108409 L 370.029842 235.150202 " transform="matrix(-0.00853897,-0.0441971,-0.0438127,0.00846473,155.278642,88.137209)"/>
</g>
</g>
</g>
</g>
<g clip-path="url(#clip5)" clip-rule="nonzero">
<g clip-path="url(#clip6)" clip-rule="nonzero">
<g clip-path="url(#clip7)" clip-rule="nonzero">
<g clip-path="url(#clip8)" clip-rule="nonzero">
<path style="fill:none;stroke-width:7;stroke-linecap:butt;stroke-linejoin:miter;stroke:rgb(0%,0%,0%);stroke-opacity:1;stroke-miterlimit:4;" d="M 418.132736 140.147561 C 413.965656 125.382409 406.250834 110.468397 390.84333 104.688282 C 380.51275 100.708563 368.495089 104.603354 360.304313 110.398071 C 348.811614 118.401524 345.938166 136.003784 350.809737 149.092916 C 356.211505 163.318831 374.425099 171.420432 372.737663 188.650283 C 371.097683 204.117441 368.819859 220.047557 370.014234 235.523878 C 452.910795 277.698556 539.712756 311.534535 624.430732 349.682116 C 632.624991 353.352666 638.523812 364.644226 633.43118 371.759468 C 626.362209 381.58657 611.42733 375.294348 600.764916 374.298134 C 433.342592 358.79596 265.960047 341.31124 98.64153 324.099398 C 90.873661 323.275299 82.373392 317.0842 85.433511 307.950122 C 88.980388 297.147776 102.858887 296.598686 112.208631 294.339748 C 196.908331 274.209783 282.225286 256.149036 366.981338 236.072097 L 370.002719 235.1941 " transform="matrix(-0.0345733,0.0371002,0.0367424,0.0342399,93.830295,48.247168)"/>
</g>
</g>
</g>
</g>
</g>
</svg>
